<svg xmlns="http://www.w3.org/2000/svg" width="30" height="30" viewBox="0 0 30 30">
    <g fill="none" fill-rule="evenodd">
        <path fill="#FAFAFA" d="M10.39 23.61l-4.414 2.407a4.047 4.047 0 0 0-.708.504A14.721 14.721 0 0 0 14.79 30c3.603 0 6.903-1.289 9.468-3.429a3.918 3.918 0 0 0-.777-.52l-4.725-2.363a1.805 1.805 0 0 1-.998-1.613V20.22c.134-.15.286-.346.447-.575.646-.91 1.131-1.911 1.469-2.96a1.485 1.485 0 0 0 1.055-1.412v-1.978c0-.436-.194-.826-.496-1.099V9.336s.588-4.45-5.443-4.45c-6.028 0-5.44 4.45-5.44 4.45v2.861a1.476 1.476 0 0 0-.496 1.099v1.978c0 .52.276.978.685 1.246.496 2.153 1.79 3.7 1.79 3.7v1.81c0 .657-.362 1.265-.94 1.58z"/>
        <path fill="#C7C7CC" d="M15.043.421C6.876.283.142 6.791.003 14.955c-.079 4.634 1.984 8.795 5.27 11.56.216-.184.444-.356.7-.498l4.416-2.406c.578-.316.937-.921.937-1.583V20.22s-1.294-1.551-1.787-3.704a1.476 1.476 0 0 1-.685-1.243v-1.981c0-.433.194-.823.493-1.096V9.336s-.585-4.454 5.443-4.454c6.029 0 5.443 4.454 5.443 4.454v2.861c.3.273.493.663.493 1.096v1.981c0 .665-.447 1.224-1.052 1.412a10.914 10.914 0 0 1-1.469 2.96 7.638 7.638 0 0 1-.447.575v1.853c0 .684.384 1.308.995 1.613l4.728 2.363c.283.141.54.319.774.518a14.745 14.745 0 0 0 5.323-11.105C29.72 7.295 23.212.56 15.043.42z"/>
    </g>
</svg>
